<svg width="1024" height="1024" viewBox="0 0 1024 1024" fill="none" xmlns="http://www.w3.org/2000/svg">
  <title>Pesquisa app icon light</title>
  <rect x="64" y="64" width="896" height="896" rx="220" fill="#F8FAFC"/>
  <rect x="64" y="64" width="896" height="896" rx="220" stroke="#E2E8F0" stroke-width="8"/>
  <g aria-label="Selected survey audience point">
    <circle cx="322" cy="310" r="29" fill="#CBD5E1" opacity="0.78"/>
    <circle cx="450" cy="310" r="29" fill="#CBD5E1" opacity="0.58"/>
    <circle cx="578" cy="310" r="29" fill="#CBD5E1" opacity="0.78"/>
    <circle cx="706" cy="310" r="29" fill="#CBD5E1" opacity="0.58"/>
    <circle cx="322" cy="438" r="29" fill="#CBD5E1" opacity="0.58"/>
    <circle cx="450" cy="438" r="29" fill="#CBD5E1" opacity="0.78"/>
    <circle cx="578" cy="438" r="29" fill="#CBD5E1" opacity="0.58"/>
    <circle cx="706" cy="438" r="29" fill="#CBD5E1" opacity="0.78"/>
    <circle cx="322" cy="566" r="29" fill="#CBD5E1" opacity="0.78"/>
    <circle cx="450" cy="566" r="29" fill="#CBD5E1" opacity="0.58"/>
    <circle cx="706" cy="566" r="29" fill="#CBD5E1" opacity="0.58"/>
    <circle cx="322" cy="694" r="29" fill="#CBD5E1" opacity="0.58"/>
    <circle cx="450" cy="694" r="29" fill="#CBD5E1" opacity="0.78"/>
    <circle cx="578" cy="694" r="29" fill="#CBD5E1" opacity="0.58"/>
    <circle cx="706" cy="694" r="29" fill="#CBD5E1" opacity="0.78"/>
    <circle cx="578" cy="574" r="59.4" fill="#000000" opacity="0.12"/>
    <circle cx="578" cy="566" r="62.3" fill="#BFDBFE" opacity="0.58"/>
    <circle cx="578" cy="566" r="41.2" fill="#2563EB"/>
    <circle cx="565.8" cy="551.5" r="8.1" fill="#FFFFFF" opacity="0.50"/>
  </g>
</svg>
